# xmcd
#
# Track frame offsets:
# 150
# 19959
# 35931
# 53159
# 71038
# 87538
# 113617
# 131967
# 146916
# 164142
# 180570
# 191339
#
# Disc length: 2920 seconds
#
#
# Revision: 0
# Processed by: cddbd v1.5.1PL0 Copyright (c) Steve Scherf et al.
# Submitted via: FreeRIP 2.51 
#
DISCID=bb0b660c
DTITLE=Mike Rossi Band - Measure of a Man
DYEAR=2004
DGENRE=Blues
TTITLE0=Measure of a Man
TTITLE1=Don't Tell Me You Love Me
TTITLE2=My World Without Your Love
TTITLE3=Dark Side
TTITLE4=Name in the Paper
TTITLE5=Different Kind of Love
TTITLE6=Stormy
TTITLE7=Eyes of a fool
TTITLE8=Big Hurt
TTITLE9=It's Your Hair
TTITLE10=Who's Loving You Tonight
TTITLE11=My Piece of the Pie
EXTD=
EXTT0=
EXTT1=
EXTT2=
EXTT3=
EXTT4=
EXTT5=
EXTT6=
EXTT7=
EXTT8=
EXTT9=
EXTT10=
EXTT11=
PLAYORDER=
